<svg id="Layer_1" data-name="Layer 1" xmlns="http://www.w3.org/2000/svg" viewBox="0 0 1080 1080"><defs><style>.cls-1{fill:#ffffff;}</style></defs><title>logo - mafate7</title><path class="cls-1" d="M553.48,742.41a36.68,36.68,0,0,0-6.49-.29l-47.46,0q-42.52,0-85,0c-7,0-7.16-3.28-7.25-4.86a4.87,4.87,0,0,1,1-3.75c1.12-1.19,3.31-1.85,6.17-1.85q32.67,0,65.33,0h30.75c15.55,0,23.52-5.94,23.69-17.64.06-5-1.44-9.14-4.48-12.22-3.95-4-10-5.88-18.93-5.88h-151l-2,0c-1.2,0-2.41.05-3.6,0a10.63,10.63,0,0,1,1.11-1.32c4-4.24,14.44-13.52,19.2-17.47,5.48-4.55,11-9,16.57-13.48,6.72-5.41,13.67-11,20.4-16.69,5.57-4.7,8.15-11.65,6.72-18.13A16.8,16.8,0,0,0,406,616.22c-4.7-1.31-11.95.23-16,2.94-12.37,8.23-25.28,16.17-37.79,23.85-27.31,16.79-55.56,34.16-80.47,56-9.88,8.67-29.87,14.84-43,18.16a16.75,16.75,0,0,0-12.66,16.23l-.17,96.86A16.78,16.78,0,0,0,232.44,847c24.1.34,43.2,4.13,60.48,11.82,17.69,7.86,37.54,11.69,60.62,11.69h1.75c29.68-.25,59.88-.2,89.08-.16q23,0,46,0c8.23,0,15-3.3,18.49-9,3.08-5,3.17-11.23.24-17-4.89-9.69-14.73-9.75-18.43-9.66q-38.28,0-76.56,0c-2.62,0-4.66-.67-5.76-1.87a5,5,0,0,1-1-4c.13-1.38.43-4.61,7-4.62q38.37,0,76.74,0h31.62l1.51,0a40.32,40.32,0,0,0,5.8-.22c9.71-1.3,16.51-9.23,15.83-18.46s-6.57-15.6-15.75-16.85a41.37,41.37,0,0,0-6.37-.24l-34.21,0q-37.93,0-75.84,0c-2.26,0-4.07-.58-5.08-1.61A5,5,0,0,1,407.3,783c0-1.22.08-4.91,6.2-5.12,1.07,0,2.15,0,3.25,0H545.49l1.55,0a36.25,36.25,0,0,0,6.69-.33c9.38-1.57,15.17-8.35,15.1-17.69S562.88,743.87,553.48,742.41Z"/><path class="cls-1" d="M870.47,635.1q0-22.8,0-45.61c0-8.23-3.3-15-9-18.48-5-3.1-11.22-3.18-17.05-.25-9.67,4.88-9.66,14.73-9.66,18.44q0,38.28,0,76.55c0,2.63-.68,4.67-1.88,5.76a4.88,4.88,0,0,1-4,1c-1.37-.13-4.61-.43-4.62-6.95q0-36.12,0-72.23V557.23l0-1.48a39.63,39.63,0,0,0-.23-5.84c-1.29-9.7-9.12-16.43-18.46-15.83s-15.59,6.57-16.85,15.75a41.84,41.84,0,0,0-.24,6.31l0,34.51q0,37.8,0,75.59a7.15,7.15,0,0,1-1.61,5.09,5.13,5.13,0,0,1-3.72,1.2c-1.21,0-4.91-.08-5.12-6.2,0-1.08,0-2.16,0-3.24V532.78a36.32,36.32,0,0,0-.32-6.69c-1.57-9.32-8.28-15.09-17.52-15.09H760c-9.3.08-16,6-17.46,15.36a36.92,36.92,0,0,0-.28,6.52l0,1.65v43.59q0,43.59,0,87.16c0,7-3.28,7.16-4.85,7.25a4.91,4.91,0,0,1-3.75-1c-1.19-1.12-1.85-3.31-1.85-6.17q0-33.26,0-66.51V569.26c0-15.56-5.94-23.53-17.64-23.69-5.12,0-9.14,1.43-12.23,4.47-4,4-5.87,10-5.87,18.94V720l0,2c0,1.21,0,2.42,0,3.62a12.72,12.72,0,0,1-1.33-1.11c-4.2-4-13.5-14.43-17.47-19.21-4.54-5.47-9-11-13.46-16.54-5.41-6.73-11-13.68-16.7-20.42-4.71-5.58-11.66-8.17-18.14-6.73a16.8,16.8,0,0,0-12.56,12.28c-1.32,4.7.21,12,2.92,16,8.24,12.38,16.19,25.31,23.87,37.82,16.79,27.31,34.16,55.56,56,80.46A84.36,84.36,0,0,1,719,849.79a16.9,16.9,0,0,0,16.59,14.33l94.81-.17a16.77,16.77,0,0,0,16.71-16.56c.35-24.09,4.12-43.19,11.81-60.48,8.06-18.12,11.88-38.52,11.68-62.37C870.39,694.74,870.43,664.42,870.47,635.1Z"/><path class="cls-1" d="M864.12,249.74A16.78,16.78,0,0,0,847.55,233c-24.08-.34-43.19-4.13-60.48-11.82-18.12-8.06-38.52-11.87-62.36-11.68-29.63.24-59.76.2-88.9.16q-23.07,0-46.15,0c-8.23,0-15,3.3-18.49,9-3.09,5-3.17,11.24-.24,17.06,4.89,9.68,14.84,9.64,18.43,9.66h3.07q36.74,0,73.49,0c2.62,0,4.67.68,5.76,1.88a5,5,0,0,1,1,3.94c-.13,1.38-.43,4.62-7,4.63q-36.11,0-72.23,0H555.92a39.59,39.59,0,0,0-5.85.22c-9.7,1.29-16.51,9.22-15.83,18.46s6.58,15.59,15.74,16.85a41.5,41.5,0,0,0,6.38.24l34.21,0q37.9,0,75.84,0a7.12,7.12,0,0,1,5.08,1.61A5,5,0,0,1,672.7,297c0,1.21-.08,4.91-6.2,5.11-1.08,0-2.16,0-3.25,0H534.5l-1.59,0a36.66,36.66,0,0,0-6.64.34c-9.38,1.57-15.17,8.35-15.1,17.69s5.95,16,15.35,17.45a38.41,38.41,0,0,0,6.55.3l45.22,0q43.59,0,87.16,0c7,0,7.15,3.28,7.25,4.85a4.89,4.89,0,0,1-1,3.76c-1.11,1.18-3.3,1.84-6.16,1.84q-33.25.06-66.51,0H569.43c-15.56,0-23.53,5.94-23.7,17.65-.07,5,1.44,9.14,4.48,12.22,4,4,10,5.88,18.93,5.88h151l2,0c1.22,0,2.43-.06,3.62,0a11.79,11.79,0,0,1-1.11,1.31c-4.05,4.25-14.44,13.53-19.2,17.48-5.48,4.55-11,9-16.57,13.48-6.72,5.41-13.67,11-20.4,16.68-5.57,4.7-8.15,11.65-6.72,18.13a16.84,16.84,0,0,0,12.38,12.6,17.26,17.26,0,0,0,4.49.57,20,20,0,0,0,10.75-3.06c12.57-8.4,25.74-16.49,38.46-24.31,27.33-16.8,55.58-34.16,80.49-56A84.42,84.42,0,0,1,850,361.2a16.87,16.87,0,0,0,14.28-16.59Z"/><path class="cls-1" d="M209.53,444.9q0,22.8,0,45.6c0,8.23,3.3,15,9,18.49,5,3.09,11.22,3.17,17.05.24,9.67-4.88,9.66-14.73,9.66-18.44q0-38.27,0-76.54c0-2.63.68-4.67,1.88-5.77a5,5,0,0,1,4-1c1.37.13,4.61.42,4.62,6.94q0,36.12,0,72.24v36.12l0,1.47a39.71,39.71,0,0,0,.23,5.85c1.29,9.71,9.26,16.55,18.46,15.83s15.59-6.58,16.85-15.75a41.2,41.2,0,0,0,.24-6.36l0-37q0-36.52,0-73.06c0-2.27.57-4.08,1.6-5.09a5.45,5.45,0,0,1,3.73-1.21c1.21,0,4.91.09,5.12,6.2,0,1.09,0,2.17,0,3.25V547.22a36.21,36.21,0,0,0,.32,6.68c1.57,9.32,8.28,15.09,17.52,15.09H320c9.31-.06,16-6,17.47-15.36a37.9,37.9,0,0,0,.28-6.52l0-45.24q0-43.58,0-87.16c0-7,3.28-7.16,4.85-7.25a4.92,4.92,0,0,1,3.75,1c1.19,1.12,1.85,3.31,1.85,6.17q0,33.25,0,66.51v29.57c0,15.56,5.94,23.52,17.64,23.69h.34c4.87,0,8.87-1.5,11.89-4.48,4-4,5.87-10,5.87-18.93V360l0-2c0-1.21-.05-2.42,0-3.62a12.72,12.72,0,0,1,1.33,1.11c4.22,4,13.51,14.44,17.47,19.21,4.56,5.49,9,11.05,13.52,16.61,5.39,6.7,11,13.63,16.64,20.35,4.7,5.57,11.63,8.16,18.14,6.72a16.78,16.78,0,0,0,12.56-12.3c1.31-4.71-.23-12-2.94-16-8.23-12.37-16.16-25.27-23.84-37.76-16.79-27.33-34.16-55.58-56-80.5A84.36,84.36,0,0,1,361,230.2a16.89,16.89,0,0,0-16.59-14.32l-94.81.17a16.77,16.77,0,0,0-16.71,16.56c-.35,24.09-4.12,43.19-11.81,60.48-8.06,18.12-11.88,38.52-11.68,62.37C209.61,385.25,209.57,415.57,209.53,444.9Z"/><path class="cls-1" d="M548.52,489.14c7.3-7.56,13.63-16,21.68-22.13,30.79-23.61,72.92-6.45,81.2,32.43,4.42,20.73-.68,39.59-10.81,57.4-20.3,35.71-50.24,61.62-85.23,82-3.13,1.83-9.07,2.12-12.08.36-37.79-22.09-70-50-89.84-90-9.09-18.38-11.76-37.5-4.71-57.24,13.42-37.63,56.32-47.8,84.94-20.05C539.14,477.25,543.7,483.5,548.52,489.14Z"/></svg>
